<svg width="1393" height="1127" viewBox="0 0 1393 1127" fill="none" xmlns="http://www.w3.org/2000/svg">
<path fill-rule="evenodd" clip-rule="evenodd" d="M695.303 6.96318C883.4 95.5182 641.511 172.094 726.959 212C814.568 252.915 1155.05 223.963 1131.72 311.845C1283.99 383.963 992.265 459.559 972.434 543.463C955.747 614.066 1422.83 534.151 1391.49 601C1354.78 679.305 1080.52 1127 927.077 1127C730.459 1127 734.911 857.638 638.71 835.963C546.331 815.15 401.544 988.14 329.299 934.617C271.551 891.834 321.692 740.675 273.48 689.963C218.672 632.314 124.982 636.989 110.475 563.692C94.9954 485.477 176.864 432.366 213.386 359.463C252.86 280.671 -156.362 82.1042 67.1965 37.1655C152.668 -10.2937 593.993 -2.11288 695.303 6.96318Z" fill="#F5F5F5" fill-opacity="0.4"/>
</svg>
